HIERARCHY
ROOT root
{
	OFFSET	0	13.1	24.9
	CHANNELS 6  Xposition Yposition Zposition Xrotation Yrotation Zrotation
	JOINT spine_1
	{
		OFFSET	0	9.99999	0
		CHANNELS 3  Xrotation Yrotation Zrotation
		JOINT spine_2
		{
			OFFSET	0	112	-10
			CHANNELS 3  Xrotation Yrotation Zrotation
			JOINT spine_3
			{
				OFFSET	0	206.5	19.3
				CHANNELS 3  Xrotation Yrotation Zrotation
				JOINT spine_4
				{
					OFFSET	0	110.4	14.6
					CHANNELS 3  Xrotation Yrotation Zrotation
					JOINT neck_1
					{
						OFFSET	0	71.8	-50.3
						CHANNELS 3  Xrotation Yrotation Zrotation
						JOINT neck_2
						{
							OFFSET	0	86.2	-25.8
							CHANNELS 3  Xrotation Yrotation Zrotation
							JOINT head_ee
							{
								OFFSET	0	179.8	-8.7
								CHANNELS 3  Xrotation Yrotation Zrotation
								End Site
								{
									OFFSET	1	0	0
								}
							}
						}
					}
					JOINT left_clavicle
					{
						OFFSET	-43.2	22.4	-70.8
						CHANNELS 3  Xrotation Yrotation Zrotation
						JOINT left_shoulder
						{
							OFFSET	-93.9	-5.79999	48.7
							CHANNELS 3  Xrotation Yrotation Zrotation
							JOINT left_elbow
							{
								OFFSET	-291.4	-30.8	15.2
								CHANNELS 3  Xrotation Yrotation Zrotation
								JOINT left_lowarm_twist
								{
									OFFSET	-110.7	-3.89999	13.6
									CHANNELS 3  Xrotation Yrotation Zrotation
									JOINT left_hand
									{
										OFFSET	-110.7	-3.89999	13.6
										CHANNELS 3  Xrotation Yrotation Zrotation
										JOINT left_ee
										{
											OFFSET	-80.8	-5.10001	12.1
											CHANNELS 3  Xrotation Yrotation Zrotation
											End Site
											{
												OFFSET	1	0	0
											}
										}
									}
								}
							}
						}
					}
					JOINT right_clavicle
					{
						OFFSET	43.2	22.4	-70.8
						CHANNELS 3  Xrotation Yrotation Zrotation
						JOINT right_shoulder
						{
							OFFSET	93.9	-5.79999	48.7
							CHANNELS 3  Xrotation Yrotation Zrotation
							JOINT right_elbow
							{
								OFFSET	291.4	-30.8	15.2
								CHANNELS 3  Xrotation Yrotation Zrotation
								JOINT right_lowarm_twist
								{
									OFFSET	110.7	-3.89999	13.6
									CHANNELS 3  Xrotation Yrotation Zrotation
									JOINT right_hand
									{
										OFFSET	110.7	-3.89999	13.6
										CHANNELS 3  Xrotation Yrotation Zrotation
										JOINT right_ee
										{
											OFFSET	80.8	-5.10001	12.1
											CHANNELS 3  Xrotation Yrotation Zrotation
											End Site
											{
												OFFSET	1	0	0
											}
										}
									}
								}
							}
						}
					}
				}
			}
		}
	}
	JOINT left_hip
	{
		OFFSET	-82.8	-127.5	0.300001
		CHANNELS 3  Xrotation Yrotation Zrotation
		JOINT left_knee
		{
			OFFSET	-28.2	-396.7	2.2
			CHANNELS 3  Xrotation Yrotation Zrotation
			JOINT left_ankle
			{
				OFFSET	-11.7	-411.3	35.4
				CHANNELS 3  Xrotation Yrotation Zrotation
				JOINT left_toes
				{
					OFFSET	0	-60	-88.6
					CHANNELS 3  Xrotation Yrotation Zrotation
					JOINT left_foot_ee
					{
						OFFSET	-22.5	-16.5	-42.2
						CHANNELS 3  Xrotation Yrotation Zrotation
						End Site
						{
							OFFSET	1	0	0
						}
					}
				}
			}
		}
	}
	JOINT right_hip
	{
		OFFSET	82.8	-127.5	0.300001
		CHANNELS 3  Xrotation Yrotation Zrotation
		JOINT right_knee
		{
			OFFSET	28.2	-396.7	2.2
			CHANNELS 3  Xrotation Yrotation Zrotation
			JOINT right_ankle
			{
				OFFSET	11.7	-411.3	35.4
				CHANNELS 3  Xrotation Yrotation Zrotation
				JOINT right_toes
				{
					OFFSET	0	-60	-88.6
					CHANNELS 3  Xrotation Yrotation Zrotation
					JOINT right_foot_ee
					{
						OFFSET	22.5	-16.5	-42.2
						CHANNELS 3  Xrotation Yrotation Zrotation
						End Site
						{
							OFFSET	1	0	0
						}
					}
				}
			}
		}
	}
}
MOTION
Frames: 12
Frame Time: 0.02
3574.42 741.953 -1474.73 -12.4881823411 72.200960929 1.95803570049 1.39318 1.03303 6.70138 1.41793 0.605506 6.75321 1.49266 -0.653401 6.74876 1.42941 0.418126 6.76733 -25.2291 -12.5129 8.38362 -26.7544 -27.548 0.962171 -0.0 0.0 -0.0 -6.76217 24.541 -6.29396 12.9117 -59.5298 67.9129 0.229406 -6.4835 0.0129935 -46.7191 -3.69239 4.5004 0.22266 -10.5134 -2.96569 -0.0 0.0 -0.0 8.22574 25.6284 -14.9612 -12.2419 46.6577 -74.6627 1.50496 36.7026 -0.499239 27.8418 -0.128001 3.51947 -0.414331 -20.9378 -5.96713 0.0 0.0 0.0 0.737661 36.1209 8.57217 -14.9907 0.321663 2.27146 22.5699 -0.639902 -3.07049 -16.768 0.0 0.0 -0.0 0.0 -0.0 25.9767 13.5751 11.6212 -27.3051 -0.137815 -4.14852 13.6019 29.3761 2.38819 -16.9601 0.0 0.0 0.0 0.0 0.0 
3564.22947657 740.018 -1476.64410899 -11.5620035772 75.3701781716 0.671187039597 1.13056 1.09962 6.65289 1.15491 0.675025 6.70903 1.23919 -0.606242 6.71557 1.17661 0.459496 6.72715 -25.7367 -13.1621 8.51133 -27.483 -28.7527 0.549238 -0.0 0.0 -0.0 -6.48337 24.3782 -5.95968 14.1264 -59.9785 69.4935 0.244946 -6.91856 0.0148069 -47.5519 -3.7877 4.54878 0.473177 -11.4769 -1.68673 -0.0 0.0 -0.0 8.34607 26.6587 -15.1191 -13.1401 45.0026 -73.9622 1.42505 35.2174 -0.452312 28.7182 -0.104191 3.62889 -0.289218 -22.5783 -7.34574 0.0 0.0 0.0 0.251891 35.3642 8.8222 -15.2788 0.321987 2.31566 24.4872 -0.400254 -3.29625 -16.2977 0.0 0.0 -0.0 0.0 -0.0 24.8875 16.1755 11.2975 -31.5745 0.0194544 -4.78471 15.3862 20.8608 2.43469 -13.1872 0.0 0.0 0.0 0.0 0.0 
3551.16930676 734.31 -1477.48959302 -12.6094471934 77.9256716282 1.82832652196 1.13967 1.04803 6.63676 1.16393 0.624562 6.68967 1.24191 -0.652133 6.68705 1.17981 0.4097 6.70618 -24.9711 -12.4972 7.36941 -26.4627 -27.1358 0.0923753 -0.0 0.0 -0.0 -6.66205 24.6583 -6.11892 16.0047 -59.9082 72.4695 0.211684 -5.98641 0.0110687 -48.1578 -3.85748 4.5831 0.588188 -10.2979 -0.405596 -0.0 0.0 -0.0 7.62108 24.9255 -13.6996 -13.712 46.0908 -73.6447 1.37611 34.2798 -0.424414 28.1175 -0.12069 3.55394 0.457649 -19.4108 -10.6229 0.0 0.0 0.0 0.154074 35.5112 9.21242 -16.2117 0.32151 2.45879 27.2922 1.902 -3.60294 -12.9719 0.0 0.0 -0.0 0.0 -0.0 21.3716 19.2196 12.5831 -31.527 0.017446 -4.7777 20.1078 22.4932 3.1543 -7.60155 0.0 0.0 0.0 0.0 0.0 
3551.2130884 734.31 -1477.8363393 -11.7935509056 77.0897070902 0.992668454141 1.13967 1.04803 6.63676 1.16393 0.624562 6.68967 1.24191 -0.652133 6.68705 1.17981 0.4097 6.70618 -24.9711 -12.4972 7.36941 -26.4627 -27.1358 0.0923753 -0.0 0.0 -0.0 -6.66205 24.6583 -6.11892 16.0047 -59.9082 72.4695 0.211684 -5.98641 0.0110687 -48.1578 -3.85748 4.5831 0.588188 -10.2979 -0.405596 -0.0 0.0 -0.0 7.62108 24.9255 -13.6996 -13.712 46.0908 -73.6447 1.37611 34.2798 -0.424414 28.1175 -0.12069 3.55394 0.457649 -19.4108 -10.6229 0.0 0.0 0.0 0.154074 35.5112 9.21242 -16.2117 0.32151 2.45879 27.2922 1.902 -3.60294 -12.9719 0.0 0.0 -0.0 0.0 -0.0 21.3716 19.2196 12.5831 -31.527 0.017446 -4.7777 20.1078 22.4932 3.1543 -7.60155 0.0 0.0 0.0 0.0 0.0 
3551.24187653 734.31 -1478.04431477 -11.352765752 76.5863608846 0.539996091727 1.13967 1.04803 6.63676 1.16393 0.624562 6.68967 1.24191 -0.652133 6.68705 1.17981 0.4097 6.70618 -24.9711 -12.4972 7.36941 -26.4627 -27.1358 0.0923753 -0.0 0.0 -0.0 -6.66205 24.6583 -6.11892 16.0047 -59.9082 72.4695 0.211684 -5.98641 0.0110687 -48.1578 -3.85748 4.5831 0.588188 -10.2979 -0.405596 -0.0 0.0 -0.0 7.62108 24.9255 -13.6996 -13.712 46.0908 -73.6447 1.37611 34.2798 -0.424414 28.1175 -0.12069 3.55394 0.457649 -19.4108 -10.6229 0.0 0.0 0.0 0.154074 35.5112 9.21242 -16.2117 0.32151 2.45879 27.2922 1.902 -3.60294 -12.9719 0.0 0.0 -0.0 0.0 -0.0 21.3716 19.2196 12.5831 -31.527 0.017446 -4.7777 20.1078 22.4932 3.1543 -7.60155 0.0 0.0 0.0 0.0 0.0 
3551.3000469 734.31 -1478.42835894 -10.6196913353 75.6532419555 -0.215102713849 1.13967 1.04803 6.63676 1.16393 0.624562 6.68967 1.24191 -0.652133 6.68705 1.17981 0.4097 6.70618 -24.9711 -12.4972 7.36941 -26.4627 -27.1358 0.0923753 -0.0 0.0 -0.0 -6.66205 24.6583 -6.11892 16.0047 -59.9082 72.4695 0.211684 -5.98641 0.0110687 -48.1578 -3.85748 4.5831 0.588188 -10.2979 -0.405596 -0.0 0.0 -0.0 7.62108 24.9255 -13.6996 -13.712 46.0908 -73.6447 1.37611 34.2798 -0.424414 28.1175 -0.12069 3.55394 0.457649 -19.4108 -10.6229 0.0 0.0 0.0 0.154074 35.5112 9.21242 -16.2117 0.32151 2.45879 27.2922 1.902 -3.60294 -12.9719 0.0 0.0 -0.0 0.0 -0.0 21.3716 19.2196 12.5831 -31.527 0.017446 -4.7777 20.1078 22.4932 3.1543 -7.60155 0.0 0.0 0.0 0.0 0.0 
3538.96200455 730.52 -1482.35462979 -5.352866814 75.7252779757 -6.01915471248 0.802899 1.47616 6.49635 0.825735 1.06071 6.57663 0.955505 -0.232865 6.6572 0.894653 0.819094 6.61093 -27.9116 -12.923 6.71836 -29.7315 -27.2362 -1.44265 -0.0 0.0 -0.0 -7.49061 25.3744 -7.01892 16.6528 -60.3301 74.5699 0.287801 -8.11405 0.0204129 -48.2005 -3.8624 4.58549 0.769378 -11.9606 0.102468 -0.0 0.0 -0.0 7.43657 25.0778 -13.2789 -13.6768 45.567 -72.4773 1.33391 33.4543 -0.400898 28.3143 -0.115373 3.5785 0.956436 -16.8588 -12.8096 0.0 0.0 0.0 3.18351 25.7783 8.88289 -23.6098 0.23534 3.58991 27.9706 10.706 -3.67782 -10.3986 0.0 0.0 -0.0 0.0 -0.0 18.8208 23.3104 12.7102 -33.7968 0.119984 -5.11085 25.7416 19.5999 3.80453 -1.30543 0.0 0.0 0.0 0.0 0.0 
3539.19919259 730.52 -1483.38442929 -4.80528533741 74.062317374 -6.58627540854 0.802899 1.47616 6.49635 0.825735 1.06071 6.57663 0.955505 -0.232865 6.6572 0.894653 0.819094 6.61093 -27.9116 -12.923 6.71836 -29.7315 -27.2362 -1.44265 -0.0 0.0 -0.0 -7.49061 25.3744 -7.01892 16.6528 -60.3301 74.5699 0.287801 -8.11405 0.0204129 -48.2005 -3.8624 4.58549 0.769378 -11.9606 0.102468 -0.0 0.0 -0.0 7.43657 25.0778 -13.2789 -13.6768 45.567 -72.4773 1.33391 33.4543 -0.400898 28.3143 -0.115373 3.5785 0.956436 -16.8588 -12.8096 0.0 0.0 0.0 3.18351 25.7783 8.88289 -23.6098 0.23534 3.58991 27.9706 10.706 -3.67782 -10.3986 0.0 0.0 -0.0 0.0 -0.0 18.8208 23.3104 12.7102 -33.7968 0.119984 -5.11085 25.7416 19.5999 3.80453 -1.30543 0.0 0.0 0.0 0.0 0.0 
3539.54783672 730.52 -1484.69677726 -4.25146551498 71.9237448766 -7.16532049887 0.802899 1.47616 6.49635 0.825735 1.06071 6.57663 0.955505 -0.232865 6.6572 0.894653 0.819094 6.61093 -27.9116 -12.923 6.71836 -29.7315 -27.2362 -1.44265 -0.0 0.0 -0.0 -7.49061 25.3744 -7.01892 16.6528 -60.3301 74.5699 0.287801 -8.11405 0.0204129 -48.2005 -3.8624 4.58549 0.769378 -11.9606 0.102468 -0.0 0.0 -0.0 7.43657 25.0778 -13.2789 -13.6768 45.567 -72.4773 1.33391 33.4543 -0.400898 28.3143 -0.115373 3.5785 0.956436 -16.8588 -12.8096 0.0 0.0 0.0 3.18351 25.7783 8.88289 -23.6098 0.23534 3.58991 27.9706 10.706 -3.67782 -10.3986 0.0 0.0 -0.0 0.0 -0.0 18.8208 23.3104 12.7102 -33.7968 0.119984 -5.11085 25.7416 19.5999 3.80453 -1.30543 0.0 0.0 0.0 0.0 0.0 
3524.84140353 721.922 -1489.52463023 -0.980681229736 69.4322015054 -10.9066010053 0.88151 1.85249 6.50164 0.903866 1.43595 6.60572 1.07767 0.146718 6.75773 1.01604 1.20975 6.65067 -26.3648 -12.9601 7.63952 -28.0934 -27.9108 -0.269986 -0.0 0.0 -0.0 -8.49918 25.0721 -8.51833 9.97498 -57.1074 72.5517 0.541881 -15.026 0.0714654 -47.1807 -3.74513 4.52739 0.539687 -14.3621 -2.47867 -0.0 0.0 -0.0 7.94592 25.7523 -14.3314 -13.0706 45.0364 -71.3375 1.15504 29.776 -0.307082 28.5248 -0.109587 3.60478 1.46759 -15.9427 -15.7483 0.0 0.0 0.0 0.878846 24.3862 10.2584 -24.9929 0.203064 3.79969 29.6244 14.0414 -3.88408 -8.30267 0.0 0.0 -0.0 0.0 -0.0 17.5551 26.3598 12.5129 -37.0344 0.288956 -5.57862 28.878 21.494 4.25328 0.583826 -0.0 -0.0 0.0 0.0 0.0 
3525.96611215 721.922 -1492.87219018 -0.831466939818 65.5211965307 -11.0680425241 0.88151 1.85249 6.50164 0.903866 1.43595 6.60572 1.07767 0.146718 6.75773 1.01604 1.20975 6.65067 -26.3648 -12.9601 7.63952 -28.0934 -27.9108 -0.269986 -0.0 0.0 -0.0 -8.49918 25.0721 -8.51833 9.97498 -57.1074 72.5517 0.541881 -15.026 0.0714654 -47.1807 -3.74513 4.52739 0.539687 -14.3621 -2.47867 -0.0 0.0 -0.0 7.94592 25.7523 -14.3314 -13.0706 45.0364 -71.3375 1.15504 29.776 -0.307082 28.5248 -0.109587 3.60478 1.46759 -15.9427 -15.7483 0.0 0.0 0.0 0.878846 24.3862 10.2584 -24.9929 0.203064 3.79969 29.6244 14.0414 -3.88408 -8.30267 0.0 0.0 -0.0 0.0 -0.0 17.5551 26.3598 12.5129 -37.0344 0.288956 -5.57862 28.878 21.494 4.25328 0.583826 -0.0 -0.0 0.0 0.0 0.0 
3517.99984766 718.397 -1499.55485751 0.255047760052 64.0455177158 -12.8395266479 0.76946 2.09821 6.5079 0.791438 1.68078 6.62751 0.99539 0.374781 6.82616 0.933334 1.44572 6.68249 -29.0201 -12.7647 6.90026 -30.8722 -26.8174 -1.3982 -0.0 0.0 -0.0 -9.32811 25.6054 -9.46366 7.23136 -57.247 72.4231 0.643011 -17.6683 0.0999367 -46.7651 -3.69763 4.50311 0.511042 -16.036 -3.39251 -0.0 0.0 -0.0 8.57419 27.5807 -15.5222 -11.2765 44.5372 -71.4143 0.987063 26.0564 -0.228398 28.2593 -0.116866 3.57164 1.63655 -15.541 -16.7071 0.0 0.0 0.0 0.621205 22.6681 10.9542 -27.3557 0.136231 4.15612 34.1268 16.3358 -4.38809 -5.44776 0.0 0.0 -0.0 0.0 -0.0 16.6516 23.6894 14.1267 -38.1379 0.352571 -5.73583 32.4197 21.9233 4.67703 4.24787 -0.0 -0.0 0.0 0.0 0.0 
